<?xml version="1.0" standalone="no"?>
<!DOCTYPE svg PUBLIC "-//W3C//DTD SVG 20010904//EN"
 "http://www.w3.org/TR/2001/REC-SVG-20010904/DTD/svg10.dtd">
<svg version="1.0" xmlns="http://www.w3.org/2000/svg"
 width="640.000000pt" height="640.000000pt" viewBox="0 0 640.000000 640.000000"
 preserveAspectRatio="xMidYMid meet">
<metadata>
Created by potrace 1.14, written by Peter Selinger 2001-2017
</metadata>
<g transform="translate(0.000000,640.000000) scale(0.100000,-0.100000)"
fill="#000000" stroke="none">
<path d="M2662 6139 c-29 -4 -65 -12 -80 -17 -15 -6 -65 -13 -112 -15 -50 -3
-97 -12 -115 -21 -16 -9 -46 -16 -66 -16 -20 0 -42 -7 -49 -15 -7 -8 -29 -15
-50 -15 -21 0 -43 -7 -50 -15 -7 -8 -23 -15 -37 -15 -13 0 -45 -9 -71 -21 -26
-11 -56 -24 -67 -28 -11 -4 -40 -17 -65 -29 -25 -12 -49 -22 -53 -22 -4 0 -33
-16 -63 -35 -30 -19 -58 -35 -63 -35 -5 0 -14 -7 -21 -15 -18 -22 -30 -18 -30
10 0 38 -25 92 -49 104 -21 12 -71 5 -71 -9 0 -4 -19 -15 -41 -24 -42 -17
-138 -110 -139 -134 0 -7 -7 -24 -16 -37 -16 -24 -21 -25 -125 -25 -107 0
-109 0 -139 -30 -17 -16 -35 -41 -40 -56 -6 -14 -19 -28 -30 -31 -11 -3 -20
-10 -20 -15 0 -10 17 -8 53 7 11 5 17 3 17 -6 1 -22 36 -59 56 -59 16 0 16 -1
-2 -19 -10 -10 -27 -28 -36 -40 -25 -30 -38 -26 -38 11 0 30 0 31 -20 13 -21
-19 -27 -45 -10 -45 6 0 10 -7 10 -15 0 -8 -7 -15 -15 -15 -8 0 -15 -6 -15
-12 0 -14 -77 -88 -91 -88 -5 0 -8 -6 -7 -12 4 -19 -48 -21 -84 -4 -25 13 -69
16 -228 16 -143 0 -199 3 -208 12 -9 9 -68 14 -197 17 l-185 3 0 -45 0 -44
108 -6 c59 -4 143 -11 187 -16 44 -5 146 -10 227 -10 108 -1 160 -5 194 -17
26 -9 64 -16 83 -17 20 0 28 -2 19 -4 -10 -3 -18 -8 -18 -13 0 -5 -13 -22 -28
-38 -16 -16 -33 -38 -37 -48 -8 -17 -9 -15 -13 9 -7 56 -89 105 -105 62 -8
-18 11 -30 41 -26 15 1 22 -3 22 -13 0 -9 -4 -16 -9 -16 -14 0 -56 -89 -46
-97 4 -5 10 -2 12 5 3 6 11 12 19 12 8 0 14 -6 14 -12 0 -16 -75 -98 -90 -98
-5 0 -10 -9 -10 -20 0 -18 -32 -74 -51 -90 -3 -3 -18 -32 -34 -65 -34 -72 -61
-110 -70 -95 -3 5 -18 7 -32 4 -16 -4 -28 -2 -34 7 -6 11 -11 11 -20 2 -7 -7
-35 -10 -78 -8 -36 3 -108 7 -159 9 l-92 5 0 -1806 0 -1806 283 6 c155 4 325
11 377 16 52 6 172 11 265 12 94 1 217 6 274 10 57 5 111 5 119 0 10 -6 22 -2
36 10 17 16 36 19 125 19 58 0 124 5 146 11 22 6 104 15 183 19 86 5 148 13
157 20 20 16 45 5 45 -19 0 -11 5 -23 10 -26 6 -3 10 -15 10 -25 0 -10 7 -25
15 -33 23 -23 29 -63 11 -70 -9 -4 -23 -4 -31 -1 -10 4 -15 0 -15 -15 0 -24
28 -28 59 -9 17 10 23 8 40 -13 11 -13 25 -36 32 -51 6 -15 15 -25 20 -22 5 3
9 0 9 -6 0 -12 140 -155 178 -181 22 -16 20 -16 -64 -23 -48 -4 -95 -11 -103
-15 -9 -5 -74 -11 -146 -14 -71 -4 -164 -13 -205 -21 -41 -8 -163 -17 -270
-20 -107 -4 -222 -11 -255 -16 -33 -5 -152 -10 -265 -10 -113 0 -308 -5 -435
-11 -126 -6 -314 -10 -418 -10 l-187 0 0 -279 0 -280 3105 0 c3059 0 3104 0
3115 19 5 11 10 29 10 40 0 10 6 32 14 48 20 41 37 92 46 138 4 22 15 54 24
70 9 17 16 38 16 49 0 10 6 39 14 65 55 178 51 96 51 986 0 537 -3 822 -10
825 -5 3 -12 -8 -13 -25 -2 -16 -10 -34 -18 -38 -8 -4 -14 -16 -14 -26 0 -9
-9 -27 -20 -39 -11 -12 -20 -26 -20 -32 0 -12 -13 -30 -47 -65 -13 -12 -23
-27 -23 -33 0 -6 -6 -15 -13 -19 -8 -4 -24 -24 -38 -43 -32 -47 -167 -178
-190 -185 -11 -4 -19 -11 -19 -16 0 -5 -7 -9 -15 -9 -9 0 -18 -7 -21 -15 -3
-8 -15 -17 -27 -21 -11 -3 -25 -10 -31 -15 -6 -5 -22 -18 -35 -29 -25 -21 -61
-27 -61 -10 0 6 -12 10 -26 10 -19 0 -25 -4 -22 -18 2 -9 12 -16 21 -16 10 1
16 -3 14 -10 -2 -6 -11 -10 -21 -8 -9 2 -16 -4 -16 -12 0 -8 -16 -20 -35 -26
-19 -6 -33 -16 -30 -21 9 -14 -49 -11 -88 6 -19 8 -37 20 -39 27 -6 17 -28 0
-28 -23 0 -11 7 -19 18 -19 14 0 15 -2 3 -9 -10 -6 0 -8 27 -4 28 4 42 2 42
-6 0 -6 -9 -11 -19 -11 -11 0 -26 -6 -33 -14 -8 -7 -28 -17 -45 -20 -17 -4
-34 -14 -37 -23 -5 -12 -16 -14 -54 -8 -38 5 -45 4 -34 -6 19 -20 14 -29 -17
-29 -16 0 -36 -7 -45 -15 -8 -8 -24 -15 -35 -15 -11 0 -26 -7 -35 -15 -8 -8
-30 -18 -48 -21 -32 -5 -68 -20 -133 -52 -22 -11 -27 -11 -17 -1 8 9 12 49 12
122 0 103 -9 164 -47 307 -8 30 -14 64 -14 75 0 11 -8 28 -17 39 -13 14 -14
20 -4 23 6 3 10 9 6 14 -3 5 -1 9 5 9 5 0 17 18 27 40 10 22 21 40 25 40 4 0
9 11 13 24 8 33 66 93 99 101 23 6 27 4 27 -15 0 -13 -8 -24 -20 -27 -21 -6
-23 -14 -14 -50 8 -29 20 -21 39 23 8 19 19 34 24 34 17 0 13 40 -4 46 -12 5
-9 11 12 27 15 12 32 22 39 23 16 3 74 46 74 56 0 4 10 8 23 7 12 0 16 -3 10
-6 -7 -2 -13 -18 -13 -34 0 -18 -4 -28 -10 -24 -5 3 -10 1 -10 -4 0 -6 -11
-11 -25 -11 -18 0 -25 -5 -25 -19 0 -10 -7 -21 -15 -25 -8 -3 -15 -10 -15 -15
0 -19 76 22 95 52 11 17 36 42 55 54 58 38 79 57 80 72 0 9 -8 12 -25 9 -17
-4 -25 -1 -25 8 0 8 7 14 15 14 8 0 31 16 51 35 43 42 56 44 52 8 -2 -19 2
-28 15 -31 13 -3 17 3 17 25 0 16 -6 35 -12 42 -11 10 -10 15 5 25 9 7 17 18
17 25 0 6 7 11 15 11 8 0 15 6 15 13 0 6 9 23 20 37 11 14 20 30 20 37 0 7 14
33 31 58 24 36 32 60 36 108 2 34 10 81 18 104 7 23 12 50 10 60 -2 10 -6 52
-9 93 -3 41 -7 86 -10 100 -2 14 -7 46 -11 73 -3 26 -13 59 -21 75 -7 15 -14
37 -14 48 0 12 -7 27 -15 34 -8 7 -15 18 -15 25 0 19 -33 78 -48 88 -7 5 -17
18 -23 30 -15 36 -32 59 -66 90 -18 16 -30 33 -27 38 3 5 -3 9 -13 9 -14 0
-15 2 -5 9 8 5 12 17 10 27 -4 24 -48 32 -48 10 0 -22 -33 -20 -47 3 -6 10
-32 29 -57 41 -25 12 -46 27 -47 33 0 7 -2 52 -4 100 -2 48 -8 102 -13 120 -6
18 -13 62 -16 99 l-5 67 40 -4 c24 -3 53 2 69 10 26 13 28 19 32 92 4 56 1 84
-9 101 -12 19 -12 23 2 28 9 4 24 -1 34 -10 10 -9 29 -16 43 -16 14 0 31 -7
38 -15 7 -8 18 -15 24 -15 7 0 29 -9 51 -20 22 -11 44 -20 50 -20 5 0 24 -11
40 -25 17 -14 44 -32 61 -39 18 -8 50 -31 73 -51 23 -21 41 -34 41 -31 0 10
52 -26 82 -56 15 -16 32 -28 38 -28 5 0 10 -7 10 -15 0 -8 5 -15 10 -15 6 0
10 -7 10 -15 0 -8 6 -12 13 -9 7 2 32 -16 55 -41 44 -49 44 -56 3 -108 -26
-31 -2 -31 30 1 l32 32 32 -33 c17 -17 40 -48 52 -67 12 -20 31 -47 43 -59 11
-13 20 -30 20 -36 0 -7 13 -28 30 -46 16 -19 30 -42 30 -51 0 -9 6 -23 14 -30
7 -8 17 -25 21 -38 4 -14 14 -34 22 -45 13 -18 14 -6 11 99 -2 84 -7 121 -15
124 -7 2 -13 19 -13 38 0 24 -4 32 -13 28 -17 -6 -67 57 -67 85 0 12 -5 21
-12 21 -14 0 -78 71 -78 87 0 6 5 15 10 18 12 7 4 25 -11 25 -5 0 -9 -7 -9
-15 0 -25 -10 -18 -81 53 -119 119 -179 172 -194 172 -7 0 -15 3 -17 8 -1 4
-22 19 -45 35 -24 15 -43 31 -43 36 0 5 -12 12 -26 15 -15 4 -33 14 -41 21 -8
8 -23 15 -34 15 -10 0 -19 4 -19 8 0 4 -28 21 -62 37 -81 37 -101 54 -87 71
13 16 4 34 -17 34 -11 0 -12 -4 -5 -19 6 -10 7 -21 4 -25 -12 -12 -62 -6 -70
9 -5 8 -24 17 -43 19 -19 2 -38 4 -42 5 -5 0 -8 9 -8 19 0 10 -5 23 -11 29 -6
6 -15 30 -20 54 -10 46 -74 184 -88 194 -5 2 -12 20 -15 39 -4 19 -13 37 -21
40 -8 3 -15 14 -15 25 0 11 -6 24 -14 28 -22 13 -28 49 -11 63 20 16 20 60 0
60 -10 0 -15 -10 -15 -30 0 -43 -14 -37 -36 15 -10 25 -21 45 -26 45 -13 0
-69 90 -63 100 3 6 1 10 -6 10 -18 0 -60 50 -62 73 -1 11 -9 22 -19 25 -10 2
-18 8 -18 14 0 5 -12 21 -28 36 -15 15 -38 42 -51 61 -14 19 -46 57 -73 84
-28 29 -47 56 -44 64 3 8 1 11 -4 8 -6 -4 -17 1 -26 10 -9 8 -32 28 -52 43
-56 42 -82 68 -82 82 0 7 8 10 20 7 21 -5 19 4 -8 36 -22 25 -33 21 -22 -8 11
-30 -2 -41 -24 -19 -19 18 -20 26 -5 41 7 7 10 36 7 77 -6 98 -10 100 -181
104 -98 2 -152 7 -174 17 -17 8 -39 15 -49 15 -9 0 -25 6 -33 13 -9 7 -49 24
-89 37 -41 14 -78 30 -84 37 -6 7 -27 13 -47 13 -20 0 -45 7 -55 15 -11 8 -34
15 -51 15 -17 0 -39 6 -50 14 -11 7 -38 16 -59 20 -22 4 -49 14 -60 22 -11 8
-32 14 -46 14 -14 0 -34 6 -45 14 -11 7 -38 16 -60 20 -22 4 -44 11 -50 16 -5
4 -32 11 -59 14 -27 4 -58 14 -70 21 -11 8 -39 15 -63 15 -23 0 -44 4 -47 9
-12 20 -377 34 -494 20z m-1957 -1078 c3 -5 1 -12 -5 -16 -5 -3 -10 1 -10 9 0
18 6 21 15 7z m1461 -923 c169 -161 174 -167 160 -175 -7 -4 -19 -18 -25 -31
-12 -22 -11 -23 8 -13 29 16 41 13 41 -9 0 -11 5 -20 10 -20 13 0 13 16 0 41
-13 24 -3 24 37 0 40 -25 73 -53 73 -64 0 -4 -10 -12 -22 -17 l-23 -9 22 0
c12 -1 25 4 28 9 8 13 58 1 68 -17 4 -7 15 -13 23 -13 15 0 73 -37 86 -55 5
-6 8 -6 8 0 0 5 5 4 12 -3 7 -7 22 -12 35 -12 38 0 26 -16 -13 -17 -19 -1 -38
-4 -41 -7 -11 -10 19 -36 42 -36 13 0 35 -7 51 -15 25 -13 30 -13 47 2 17 16
21 16 65 -1 26 -10 61 -22 77 -26 54 -16 139 -47 197 -74 31 -14 68 -26 83
-26 14 0 51 -9 82 -20 32 -11 69 -20 84 -20 15 0 40 -7 55 -15 16 -8 50 -15
76 -15 26 0 65 -7 86 -15 28 -12 67 -15 148 -13 l109 3 5 64 c4 56 7 62 19 48
7 -10 19 -17 25 -17 7 0 31 -16 53 -35 23 -19 48 -35 56 -35 9 0 17 -3 19 -7
4 -11 65 -53 76 -53 5 0 19 -9 32 -20 13 -11 29 -20 36 -20 7 0 16 -5 20 -11
4 -7 -4 -10 -22 -7 -21 2 -30 -2 -32 -14 -3 -14 3 -18 28 -18 18 0 29 4 25 10
-11 18 30 11 80 -14 l50 -23 -34 -8 c-30 -6 -32 -9 -18 -22 13 -14 18 -13 46
3 28 16 32 17 48 2 10 -9 31 -20 46 -24 16 -3 31 -13 34 -20 3 -8 12 -14 20
-14 9 0 41 -16 73 -35 32 -19 62 -35 68 -35 6 0 17 -6 24 -12 15 -14 28 -23
104 -67 28 -17 62 -41 76 -54 14 -13 33 -27 42 -30 28 -11 43 -67 45 -157 2
-98 10 -173 21 -180 4 -3 9 -30 10 -60 3 -74 -1 -104 -9 -60 -4 26 -11 35 -26
35 -15 0 -20 -7 -20 -29 -1 -33 -23 -47 -37 -22 -5 9 -18 16 -28 16 -26 0 -36
21 -17 35 26 19 21 23 -38 40 -30 9 -55 20 -55 24 0 5 -19 11 -41 14 -23 3
-45 10 -48 15 -3 6 -17 12 -31 13 -23 4 -20 7 31 41 38 25 63 35 77 31 13 -3
22 -1 22 6 0 6 -4 11 -9 11 -13 0 -41 59 -31 65 5 3 12 20 16 37 3 18 13 38
22 44 9 7 12 18 8 32 -10 29 -24 28 -32 -3 -3 -14 -10 -25 -14 -25 -24 0 -40
15 -40 36 0 15 -7 27 -17 30 -10 3 -26 10 -37 16 -14 7 -24 4 -45 -14 -14 -13
-36 -31 -47 -39 -12 -8 -47 -33 -77 -56 -31 -24 -61 -43 -67 -43 -5 0 -10 -7
-10 -15 0 -8 -8 -15 -18 -15 -11 0 -27 -9 -37 -20 -10 -11 -22 -17 -26 -14 -5
3 -9 1 -9 -5 0 -6 -8 -18 -19 -28 -10 -10 -21 -38 -24 -63 -3 -24 -11 -46 -16
-48 -14 -5 -14 -32 -1 -32 5 0 12 -11 16 -24 8 -34 106 -96 153 -96 20 0 45
-7 55 -15 11 -8 30 -15 41 -15 12 0 30 -9 39 -19 17 -19 17 -19 -6 -14 -12 3
-29 11 -37 17 -10 8 -17 5 -27 -9 -12 -16 -12 -20 1 -28 8 -4 20 -5 25 -2 6 3
15 -6 20 -21 12 -31 3 -47 -11 -21 -12 20 -18 21 -55 6 l-28 -10 32 -25 c41
-32 41 -45 0 -33 -54 15 -57 13 -56 -37 0 -25 -3 -49 -8 -54 -5 -5 -6 -59 -2
-122 10 -152 12 -164 31 -183 10 -9 15 -20 12 -25 -3 -4 2 -10 10 -14 8 -3 15
-12 15 -20 0 -8 9 -18 21 -21 11 -4 25 -17 31 -30 7 -16 18 -24 32 -22 17 2
22 -4 24 -30 3 -32 22 -47 22 -18 0 9 9 15 25 15 25 0 35 -23 15 -35 -15 -9
-12 -25 6 -32 11 -4 27 7 49 31 18 20 36 36 41 35 25 -4 44 3 44 16 0 9 6 12
15 9 24 -10 17 -22 -20 -34 -19 -6 -33 -15 -30 -20 6 -10 -66 -60 -88 -60 -9
0 -17 -4 -17 -9 0 -5 -13 -14 -30 -21 -16 -7 -30 -16 -30 -20 0 -4 -14 -10
-31 -14 -16 -3 -37 -13 -45 -21 -9 -8 -26 -15 -39 -15 -13 0 -30 -7 -39 -15
-8 -8 -24 -15 -35 -15 -11 0 -26 -7 -35 -15 -8 -8 -27 -15 -43 -15 -16 0 -38
-7 -50 -15 -12 -9 -43 -18 -68 -20 -25 -3 -61 -12 -81 -20 -20 -8 -57 -15 -83
-15 -26 0 -71 -6 -101 -14 -30 -7 -102 -17 -160 -20 -57 -4 -109 -11 -116 -16
-6 -6 -85 -12 -175 -16 -100 -4 -169 -11 -178 -18 -21 -16 -594 -15 -640 1
-19 7 -82 16 -140 19 -69 4 -111 11 -122 20 -8 8 -24 14 -35 14 -13 0 -20 7
-20 20 0 21 24 27 41 11 6 -5 24 -12 41 -15 25 -6 33 -3 38 11 4 10 2 19 -3
21 -20 7 -11 29 18 53 16 13 27 27 25 31 -3 4 0 8 6 8 7 0 9 7 6 16 -9 22 11
44 40 44 28 0 30 8 7 25 -15 11 -17 27 -14 95 2 70 0 83 -16 95 -17 13 -17 14
0 20 31 13 20 51 -25 84 -26 19 -36 31 -25 31 9 0 17 4 17 9 0 5 12 23 26 40
l26 31 -29 12 c-34 15 -43 26 -43 56 0 19 -5 22 -35 22 -31 0 -35 -3 -33 -22
4 -31 -13 -38 -23 -11 -7 20 -2 25 49 49 123 56 154 74 165 92 4 6 16 12 26
12 10 0 24 7 31 15 7 8 17 15 23 15 14 0 57 48 57 65 0 7 -9 15 -21 17 -18 2
-21 11 -23 49 -1 41 -7 51 -46 88 -35 32 -52 41 -80 41 -20 0 -40 4 -45 9 -12
12 -367 33 -410 25 -35 -6 -70 -37 -92 -77 -10 -21 -19 -27 -31 -21 -39 16
-72 17 -72 0 0 -9 8 -16 20 -16 11 0 25 -9 32 -20 7 -11 19 -20 26 -20 7 0 19
-15 27 -34 17 -39 37 -47 131 -47 36 -1 62 -5 58 -10 -3 -5 -10 -9 -16 -9 -12
0 -47 -38 -50 -54 -1 -11 -4 -37 -7 -68 -2 -28 -21 -21 -21 7 0 20 -4 24 -21
22 -11 -2 -25 -10 -30 -18 -7 -11 -12 -12 -29 -2 -25 16 -91 8 -102 -11 -10
-17 -73 -40 -87 -32 -5 4 -27 -1 -49 -9 -21 -9 -45 -15 -53 -13 -9 2 -15 -8
-17 -29 -3 -31 -17 -40 -54 -34 -5 0 -8 -8 -8 -19 0 -11 -4 -20 -9 -20 -17 0
-20 -64 -3 -77 14 -12 14 -13 -4 -13 -31 -1 -57 -26 -49 -49 7 -23 -11 -46
-35 -46 -9 0 -16 -11 -18 -30 -2 -25 3 -34 30 -50 28 -16 30 -20 14 -23 -11
-2 -25 3 -31 12 -7 9 -17 16 -24 16 -6 0 -11 6 -11 14 0 7 -20 38 -43 67 -42
51 -63 89 -51 89 3 0 19 -9 35 -21 16 -11 29 -16 29 -10 0 6 -4 11 -10 11 -5
0 -10 11 -10 24 0 32 -14 40 -34 20 -9 -8 -16 -11 -16 -5 0 6 -6 11 -13 11 -7
0 -18 20 -25 44 -9 37 -15 44 -37 44 -14 0 -25 -4 -25 -8 0 -14 -74 -53 -78
-41 -2 6 -8 9 -13 5 -5 -3 -9 0 -9 5 0 16 -46 13 -60 -4 -16 -19 -4 -35 27
-35 15 0 23 -3 20 -6 -4 -4 -39 -6 -79 -5 -56 1 -76 6 -86 19 -8 10 -23 16
-37 14 -16 -2 -27 2 -31 12 -3 9 -14 16 -25 16 -10 0 -23 9 -29 20 -9 17 -7
22 14 30 34 12 31 46 -3 45 -21 0 -26 -5 -24 -23 2 -12 -1 -22 -6 -22 -5 0
-11 17 -13 38 -7 50 3 152 13 152 5 0 9 9 9 20 0 23 18 27 26 5 7 -18 34 -20
34 -3 0 6 11 26 24 43 19 24 22 35 14 43 -9 9 -16 8 -29 -4 -32 -29 -40 -10
-10 25 28 33 30 33 90 28 34 -2 69 -11 78 -18 9 -8 18 -13 20 -11 11 8 33 0
33 -13 0 -8 6 -15 13 -16 9 0 9 -2 0 -6 -7 -2 -20 3 -29 12 -20 20 -68 16 -72
-6 -4 -22 96 -48 109 -28 8 12 11 12 19 -1 20 -30 12 -33 -119 -44 -35 -4 -69
-10 -75 -15 -6 -4 -23 -11 -37 -15 -32 -7 -38 -20 -32 -63 5 -30 8 -33 42 -33
21 0 46 7 57 15 11 9 42 15 79 15 89 0 102 6 107 46 2 19 1 37 -4 42 -4 4 -3
14 2 22 7 11 10 11 10 2 0 -15 56 -93 97 -136 18 -18 22 -26 11 -23 -9 3 -22
-1 -29 -9 -10 -12 -5 -21 25 -50 37 -36 44 -33 24 11 -6 14 -9 27 -6 30 7 7
60 -16 70 -30 8 -12 10 -10 32 38 9 20 21 37 26 37 6 0 10 17 10 38 0 21 7 47
15 58 8 10 15 26 15 34 0 8 9 33 20 55 11 22 19 52 20 67 0 15 5 39 11 55 6
15 15 55 19 87 5 33 13 62 18 65 5 3 13 26 17 51 4 24 13 54 20 65 7 11 16 41
20 68 3 26 13 59 21 75 7 15 14 39 14 53 0 15 7 43 15 62 8 20 15 50 15 67 0
36 21 40 39 7 10 -19 19 -22 43 -19 37 6 77 47 78 80 0 12 6 25 13 28 7 2 13
15 14 27 4 47 14 87 23 87 6 0 10 9 10 19 0 15 6 19 27 18 22 -2 29 3 31 21 4
25 -15 30 -24 7 -4 -8 -10 -15 -15 -15 -14 0 -10 42 6 70 8 14 14 46 15 72 0
25 9 67 20 93 12 28 20 69 20 103 0 31 7 70 15 86 9 16 15 56 15 95 0 36 5 84
11 106 9 32 22 151 28 248 2 29 18 20 97 -55z m628 -427 c3 -5 -1 -12 -10 -15
-28 -11 -51 -6 -51 9 0 16 52 22 61 6z m1981 -1212 c9 -26 -8 -44 -28 -33 -10
7 -12 15 -6 32 11 28 26 28 34 1z m-205 -109 c8 -16 8 -20 -4 -20 -13 0 -46
25 -46 36 0 14 41 1 50 -16z m67 -16 c-3 -3 -12 -4 -19 -1 -8 3 -5 6 6 6 11 1
17 -2 13 -5z m164 -27 c-8 -8 -11 -7 -11 4 0 20 13 34 18 19 3 -7 -1 -17 -7
-23z m-267 -42 c4 -12 2 -13 -12 -7 -9 5 -24 12 -32 15 -9 3 -4 6 11 6 15 1
29 -6 33 -14z m886 -89 c0 -3 -4 -8 -10 -11 -5 -3 -10 -1 -10 4 0 6 5 11 10
11 6 0 10 -2 10 -4z m-3144 -152 c-3 -9 -6 -18 -6 -20 0 -2 -7 -4 -15 -4 -18
0 -19 6 -2 25 16 19 31 19 23 -1z m-66 -34 c0 -5 -12 -10 -26 -10 -14 0 -23 4
-19 10 3 6 15 10 26 10 10 0 19 -4 19 -10z m203 -12 c7 -23 -4 -38 -29 -38
-19 0 -24 5 -24 25 0 20 5 25 24 25 13 0 26 -6 29 -12z m2487 -118 c0 -11 -7
-20 -15 -20 -18 0 -19 12 -3 28 16 16 18 15 18 -8z m-60 -57 c-1 -13 -48 -63
-60 -63 -15 0 -12 7 18 40 26 29 42 38 42 23z m-3300 -64 c0 -5 -4 -9 -10 -9
-5 0 -10 7 -10 16 0 8 5 12 10 9 6 -3 10 -10 10 -16z m3376 -96 c10 -3 14 -21
14 -57 0 -28 7 -86 15 -129 19 -99 19 -144 0 -181 -8 -15 -15 -37 -15 -48 0
-27 -35 -62 -55 -54 -14 5 -14 8 1 31 16 24 15 25 -4 25 -12 0 -25 -8 -31 -17
-9 -17 -11 -16 -33 5 -14 12 -27 22 -30 22 -10 0 -88 80 -88 90 0 6 -5 10 -10
10 -6 0 -15 10 -20 23 -13 29 -31 56 -52 79 -22 22 -23 38 -4 38 8 0 18 -4 21
-10 9 -15 56 -12 75 5 13 12 21 12 55 1 40 -14 60 -12 50 4 -3 5 -12 7 -20 4
-10 -4 -18 3 -25 20 -5 14 -16 26 -24 26 -17 0 -38 -24 -29 -33 3 -4 -8 -7
-25 -7 -16 0 -38 -3 -48 -7 -11 -4 -15 -2 -12 7 2 8 17 17 33 22 16 4 33 14
38 23 5 10 16 14 28 10 13 -5 19 -2 19 10 0 8 7 18 15 22 20 7 69 48 109 92
l31 33 3 -26 c2 -15 10 -30 18 -33z m-2460 -80 c-11 -11 -19 6 -11 24 8 17 8
17 12 0 3 -10 2 -21 -1 -24z m-645 -70 l34 -18 -29 -3 c-19 -2 -36 3 -50 17
-27 27 -4 29 45 4z m-195 -48 c12 -11 12 -19 4 -35 -12 -23 -6 -40 16 -40 12
0 13 8 8 35 -3 19 -3 35 0 35 12 0 64 -29 68 -37 4 -11 87 -51 121 -59 15 -3
31 -11 35 -18 10 -16 69 -37 137 -48 33 -6 65 -14 71 -19 7 -5 36 -13 65 -16
29 -3 64 -12 78 -20 17 -8 62 -13 124 -13 58 0 97 -4 97 -10 0 -5 8 -10 19
-10 38 0 68 -36 75 -92 4 -29 14 -63 22 -76 19 -29 16 -258 -3 -255 -6 2 -15
-6 -18 -17 -4 -11 -11 -20 -16 -20 -6 0 -7 -4 -4 -10 10 -16 -30 -11 -80 10
-59 25 -245 209 -245 242 0 5 7 11 15 14 8 4 15 15 15 25 0 26 -31 37 -43 17
-9 -14 -12 -14 -29 1 -10 8 -18 23 -18 33 0 9 -7 23 -15 32 -8 8 -19 25 -25
38 -5 13 -14 30 -19 38 -6 8 -12 27 -16 43 -4 23 -10 27 -38 27 -18 0 -42 -7
-55 -15 -15 -11 -57 -18 -144 -22 -73 -3 -135 -11 -152 -19 -42 -20 -195 -19
-203 1 -3 9 2 24 11 34 9 10 16 23 16 29 0 6 6 17 13 24 18 18 57 96 57 112 0
7 7 19 15 26 8 7 15 21 15 31 0 23 7 24 26 4z m2899 -19 c8 -7 17 -25 20 -39
4 -15 13 -31 21 -38 8 -6 14 -15 14 -20 0 -20 101 -136 149 -173 28 -21 51
-42 51 -47 0 -5 -27 -9 -60 -9 -45 0 -62 -4 -66 -15 -4 -10 -20 -15 -44 -15
-21 0 -45 -6 -52 -13 -7 -8 -35 -17 -62 -20 -27 -4 -54 -11 -60 -16 -6 -5 -31
-12 -56 -16 -25 -4 -54 -14 -65 -21 -11 -8 -40 -14 -66 -14 -27 0 -51 -6 -58
-14 -6 -7 -39 -16 -73 -20 -33 -3 -66 -10 -72 -15 -6 -5 -33 -12 -61 -15 -27
-4 -75 -13 -105 -21 -100 -26 -221 -46 -241 -40 -11 4 -19 2 -19 -4 0 -6 -13
-11 -30 -11 -16 0 -30 -4 -30 -9 0 -5 -30 -13 -67 -16 -38 -4 -93 -13 -123
-21 -30 -8 -75 -14 -100 -14 -25 0 -70 -6 -100 -14 -30 -8 -84 -17 -118 -21
-35 -4 -78 -12 -95 -19 -18 -7 -66 -14 -107 -15 -41 -1 -88 -5 -105 -10 -16
-5 -49 -12 -72 -15 -48 -7 -57 8 -25 40 21 22 29 117 22 269 -4 73 -10 110
-18 113 -7 2 -12 21 -12 42 l0 39 348 2 c191 1 361 2 377 1 17 -1 48 5 70 13
22 7 93 15 158 17 72 3 122 9 129 16 7 7 37 12 67 13 31 0 79 5 106 10 28 6
92 16 143 23 51 7 98 18 104 24 7 7 26 12 43 12 16 1 48 9 70 20 22 11 49 19
61 20 11 0 29 7 40 15 10 8 29 15 42 15 12 0 25 7 28 15 4 8 16 15 29 15 12 0
28 7 35 15 15 18 18 19 35 1z m-2540 -6 c3 -5 -1 -10 -10 -10 -9 0 -13 5 -10
10 3 6 8 10 10 10 2 0 7 -4 10 -10z m220 -70 c3 -5 -1 -10 -9 -10 -8 0 -18 5
-21 10 -3 6 1 10 9 10 8 0 18 -4 21 -10z"/>
<path d="M2182 4048 c3 -7 15 -15 28 -16 21 -3 22 -2 11 12 -16 19 -44 21 -39
4z"/>
<path d="M2245 3990 c10 -11 22 -17 27 -14 15 10 3 27 -22 31 -23 3 -23 3 -5
-17z"/>
<path d="M2080 3925 c0 -18 7 -26 25 -31 14 -4 28 -4 31 -2 9 10 -8 36 -32 46
-22 11 -24 9 -24 -13z"/>
<path d="M2188 3943 c7 -3 16 -2 19 1 4 3 -2 6 -13 5 -11 0 -14 -3 -6 -6z"/>
<path d="M2210 3879 c0 -5 9 -9 20 -9 11 0 20 4 20 8 0 4 -9 8 -20 9 -11 1
-20 -2 -20 -8z"/>
<path d="M2350 3811 c0 -29 18 -35 41 -15 19 17 19 19 2 25 -31 13 -43 10 -43
-10z"/>
<path d="M2445 3750 c-3 -5 3 -10 14 -10 12 0 21 5 21 10 0 6 -6 10 -14 10 -8
0 -18 -4 -21 -10z"/>
<path d="M2552 3748 c5 -14 54 -21 78 -12 12 5 11 8 -5 14 -32 13 -77 12 -73
-2z"/>
<path d="M2020 3586 c0 -31 4 -56 9 -56 5 0 9 15 9 33 1 17 2 41 4 51 2 10 -3
21 -9 23 -10 3 -13 -11 -13 -51z"/>
<path d="M2255 3540 c3 -5 8 -10 11 -10 2 0 4 5 4 10 0 6 -5 10 -11 10 -5 0
-7 -4 -4 -10z"/>
<path d="M2154 3529 c-33 -12 -37 -26 -9 -32 14 -2 28 0 31 5 3 4 10 6 15 3 5
-4 9 0 9 8 0 19 -20 26 -46 16z"/>
<path d="M2219 3476 c-26 -25 -62 -54 -80 -64 -36 -20 -49 -53 -29 -78 19 -22
59 -17 93 12 29 24 32 25 44 8 7 -10 16 -14 20 -9 5 4 2 10 -4 12 -19 7 -16
19 16 55 17 20 30 48 33 68 3 31 0 35 -22 38 -19 2 -37 -9 -71 -42z"/>
<path d="M2089 3488 c-6 -20 -3 -48 5 -45 15 5 20 47 7 47 -6 0 -11 -1 -12 -2z"/>
<path d="M3120 3481 c0 -11 26 -22 34 -14 12 12 5 23 -14 23 -11 0 -20 -4 -20
-9z"/>
<path d="M3937 3476 c-17 -13 -16 -16 22 -46 22 -18 38 -36 36 -41 -3 -4 6 -2
20 4 30 14 32 24 5 32 -11 3 -27 19 -37 36 -20 33 -21 33 -46 15z"/>
<path d="M1985 3460 c-8 -13 4 -32 16 -25 12 8 12 35 0 35 -6 0 -13 -4 -16
-10z"/>
<path d="M3405 3420 c-3 -5 1 -10 9 -10 9 0 16 5 16 10 0 6 -4 10 -9 10 -6 0
-13 -4 -16 -10z"/>
<path d="M3440 3415 c0 -13 4 -14 20 -5 11 6 20 13 20 15 0 3 -9 5 -20 5 -11
0 -20 -7 -20 -15z"/>
<path d="M3707 3424 c-11 -11 3 -24 24 -24 12 0 19 5 17 13 -5 14 -31 21 -41
11z"/>
<path d="M3826 3361 c-4 -7 -5 -15 -2 -18 9 -9 19 4 14 18 -4 11 -6 11 -12 0z"/>
<path d="M4024 3344 c3 -9 6 -18 6 -20 0 -9 39 -3 46 7 8 13 -13 29 -40 29
-12 0 -16 -5 -12 -16z"/>
<path d="M1943 3258 c-14 -18 -23 -58 -13 -58 5 0 15 -3 24 -6 23 -9 44 40 26
61 -15 18 -24 19 -37 3z"/>
<path d="M4355 3221 c-3 -6 3 -15 14 -20 27 -15 31 -14 31 9 0 21 -33 29 -45
11z"/>
<path d="M4488 3143 c7 -3 16 -2 19 1 4 3 -2 6 -13 5 -11 0 -14 -3 -6 -6z"/>
<path d="M4625 3080 c3 -5 8 -10 11 -10 2 0 4 5 4 10 0 6 -5 10 -11 10 -5 0
-7 -4 -4 -10z"/>
<path d="M4530 3059 c0 -5 -4 -7 -10 -4 -6 4 -10 -6 -10 -23 0 -19 5 -29 15
-29 10 0 15 11 15 34 0 18 -2 33 -5 33 -3 0 -5 -5 -5 -11z"/>
<path d="M4415 3020 c-8 -12 20 -24 35 -15 6 3 8 11 5 16 -8 12 -32 12 -40 -1z"/>
<path d="M1716 3012 c-2 -4 2 -16 10 -27 8 -10 14 -14 14 -8 0 6 3 18 6 27 6
16 -20 24 -30 8z"/>
<path d="M4790 2992 c0 -6 7 -17 15 -26 8 -8 15 -22 15 -30 0 -18 8 -20 28 -8
10 7 8 13 -5 28 -29 31 -53 47 -53 36z"/>
<path d="M4445 2970 c-3 -5 -20 -7 -36 -3 -27 5 -31 3 -27 -13 5 -26 58 -32
75 -8 7 10 13 21 13 26 0 11 -18 10 -25 -2z"/>
<path d="M4748 2915 c-3 -3 -3 -17 0 -31 6 -31 27 -26 27 6 0 22 -15 36 -27
25z"/>
<path d="M4217 2893 c-16 -15 -6 -34 15 -31 29 4 38 38 10 38 -10 0 -22 -3
-25 -7z"/>
<path d="M4685 2810 c-3 -5 1 -10 9 -10 9 0 16 -6 16 -14 0 -20 13 -27 30 -15
12 8 11 13 -10 29 -29 22 -36 24 -45 10z"/>
<path d="M4841 2717 c-13 -16 -5 -27 21 -27 11 0 18 7 18 20 0 23 -22 27 -39
7z"/>
<path d="M4650 2680 c-12 -8 -9 -10 13 -10 16 0 26 4 22 10 -8 12 -16 12 -35
0z"/>
<path d="M4742 2661 c-21 -13 13 -34 43 -27 31 8 32 22 3 30 -29 7 -30 7 -46
-3z"/>
<path d="M1855 2530 c-10 -17 12 -37 25 -24 8 8 6 15 -4 23 -10 9 -16 9 -21 1z"/>
<path d="M1907 2534 c-9 -10 21 -36 33 -29 8 5 7 11 -1 21 -12 15 -22 18 -32
8z"/>
<path d="M2595 2510 c-3 -5 3 -10 14 -10 12 0 21 5 21 10 0 6 -6 10 -14 10 -8
0 -18 -4 -21 -10z"/>
<path d="M4160 2509 c0 -5 5 -7 10 -4 6 3 10 8 10 11 0 2 -4 4 -10 4 -5 0 -10
-5 -10 -11z"/>
<path d="M1775 2491 c-3 -5 4 -13 16 -16 23 -8 34 -1 24 14 -8 13 -32 14 -40
2z"/>
<path d="M3580 2490 c-13 -9 -13 -12 3 -21 9 -5 17 -19 17 -29 0 -21 8 -24 34
-14 22 9 20 25 -8 52 -27 25 -26 25 -46 12z"/>
<path d="M3115 2480 c3 -5 8 -10 11 -10 2 0 4 5 4 10 0 6 -5 10 -11 10 -5 0
-7 -4 -4 -10z"/>
<path d="M2642 2462 c-23 -15 18 -40 56 -35 41 7 42 29 1 37 -39 8 -41 7 -57
-2z"/>
<path d="M3410 2440 c0 -6 7 -10 15 -10 8 0 15 2 15 4 0 2 -7 6 -15 10 -8 3
-15 1 -15 -4z"/>
<path d="M4328 2443 c7 -3 16 -2 19 1 4 3 -2 6 -13 5 -11 0 -14 -3 -6 -6z"/>
<path d="M3145 2421 c-3 -5 -1 -12 5 -16 12 -7 30 2 30 16 0 12 -27 12 -35 0z"/>
<path d="M3310 2421 c0 -11 26 -22 34 -14 3 3 3 10 0 14 -7 12 -34 11 -34 0z"/>
<path d="M3440 2413 c-33 -13 -41 -53 -10 -53 13 0 20 7 20 18 0 10 5 23 12
30 13 13 4 14 -22 5z"/>
<path d="M3578 2408 c-7 -20 3 -48 17 -48 7 0 20 -11 28 -24 15 -22 15 -25 -1
-39 -23 -20 -62 -31 -62 -18 0 6 6 11 13 11 16 0 19 30 4 48 -14 18 -25 15
-32 -9 -6 -18 -9 -19 -23 -7 -51 40 -92 44 -92 9 0 -19 -40 -61 -57 -61 -6 0
-13 -7 -17 -15 -9 -24 -30 -18 -54 15 -18 23 -30 30 -57 30 -24 0 -35 -5 -35
-14 0 -8 -3 -21 -6 -29 -3 -8 2 -21 10 -30 9 -9 16 -20 16 -26 0 -6 4 -11 9
-11 5 0 27 -12 49 -26 30 -20 41 -34 45 -60 3 -19 13 -41 22 -50 9 -9 15 -26
13 -38 -1 -13 5 -34 15 -49 9 -14 17 -33 17 -40 0 -8 6 -20 14 -26 7 -6 16
-24 20 -39 3 -15 17 -40 31 -57 20 -24 32 -30 64 -30 22 0 46 6 52 12 7 7 13
56 15 125 2 62 8 146 13 185 9 69 12 75 60 122 58 58 66 91 26 109 -14 7 -32
12 -39 12 -7 0 -21 17 -32 37 -21 39 -39 52 -46 31z"/>
<path d="M1620 2394 c0 -8 5 -12 10 -9 6 3 10 10 10 16 0 5 -4 9 -10 9 -5 0
-10 -7 -10 -16z"/>
<path d="M3652 2392 c5 -24 38 -28 38 -5 0 12 -8 19 -21 20 -14 1 -19 -3 -17
-15z"/>
<path d="M980 2379 c0 -5 5 -7 10 -4 6 3 10 8 10 11 0 2 -4 4 -10 4 -5 0 -10
-5 -10 -11z"/>
<path d="M4201 2344 c0 -11 3 -14 6 -6 3 7 2 16 -1 19 -3 4 -6 -2 -5 -13z"/>
<path d="M3345 2326 l-30 -12 25 -7 c26 -7 45 4 39 21 -3 7 -15 6 -34 -2z"/>
<path d="M980 2315 c0 -8 4 -15 9 -15 5 0 11 7 15 15 3 9 0 15 -9 15 -8 0 -15
-7 -15 -15z"/>
<path d="M1898 2324 c-8 -7 28 -44 42 -44 6 0 10 11 10 25 0 20 -5 25 -23 25
-13 0 -26 -3 -29 -6z"/>
<path d="M2747 2313 c-12 -12 -7 -22 8 -17 8 4 15 10 15 15 0 11 -14 12 -23 2z"/>
<path d="M3118 2308 c9 -9 15 -9 24 0 9 9 7 12 -12 12 -19 0 -21 -3 -12 -12z"/>
<path d="M3730 2310 c0 -5 5 -10 10 -10 6 0 10 5 10 10 0 6 -4 10 -10 10 -5 0
-10 -4 -10 -10z"/>
<path d="M3760 2310 c0 -5 5 -10 11 -10 5 0 7 5 4 10 -3 6 -8 10 -11 10 -2 0
-4 -4 -4 -10z"/>
<path d="M4240 2310 c0 -5 6 -10 14 -10 8 0 18 5 21 10 3 6 -3 10 -14 10 -12
0 -21 -4 -21 -10z"/>
<path d="M1844 2289 c-3 -6 0 -15 7 -20 22 -14 29 -11 29 11 0 21 -24 27 -36
9z"/>
<path d="M3820 2214 c0 -28 4 -43 10 -39 12 8 10 85 -2 85 -4 0 -8 -21 -8 -46z"/>
<path d="M3720 2229 c0 -7 -16 -27 -36 -46 -48 -45 -33 -61 24 -27 41 25 48
37 36 68 -7 18 -24 22 -24 5z"/>
<path d="M850 2206 c0 -16 5 -26 15 -26 8 0 15 6 15 14 0 7 -7 19 -15 26 -13
11 -15 8 -15 -14z"/>
<path d="M2547 2193 c-14 -13 -7 -33 11 -33 24 0 32 8 25 26 -5 15 -25 19 -36
7z"/>
<path d="M3196 2182 c-3 -6 -1 -14 5 -17 14 -9 20 -2 10 14 -6 8 -11 9 -15 3z"/>
<path d="M1222 2158 c-18 -18 -15 -28 8 -28 21 0 25 7 12 27 -6 10 -11 10 -20
1z"/>
<path d="M3240 2124 c0 -16 31 -34 59 -34 30 0 28 38 -1 44 -37 7 -58 4 -58
-10z"/>
<path d="M1490 2115 c0 -9 5 -15 11 -13 6 2 11 8 11 13 0 5 -5 11 -11 13 -6 2
-11 -4 -11 -13z"/>
<path d="M2510 2115 c0 -10 7 -15 18 -13 21 4 19 22 -2 26 -10 2 -16 -3 -16
-13z"/>
<path d="M1190 2109 c0 -5 5 -7 10 -4 6 3 10 8 10 11 0 2 -4 4 -10 4 -5 0 -10
-5 -10 -11z"/>
<path d="M3861 2094 c0 -11 3 -14 6 -6 3 7 2 16 -1 19 -3 4 -6 -2 -5 -13z"/>
<path d="M3115 2081 c-9 -28 9 -49 43 -53 15 -2 26 -9 25 -15 -2 -7 4 -13 12
-13 21 0 20 1 -29 54 -41 45 -44 47 -51 27z"/>
<path d="M3725 2091 c-3 -5 5 -17 17 -25 24 -17 35 -8 24 19 -6 17 -32 20 -41
6z"/>
<path d="M1190 2050 c0 -5 4 -10 9 -10 6 0 13 5 16 10 3 6 -1 10 -9 10 -9 0
-16 -4 -16 -10z"/>
<path d="M2515 2050 c-3 -5 -1 -10 4 -10 6 0 11 5 11 10 0 6 -2 10 -4 10 -3 0
-8 -4 -11 -10z"/>
<path d="M3240 2054 c0 -8 32 -33 43 -34 4 0 7 9 7 20 0 15 -7 20 -25 20 -14
0 -25 -3 -25 -6z"/>
<path d="M1021 1996 c-14 -36 -14 -36 8 -36 27 0 30 10 15 40 l-13 24 -10 -28z"/>
<path d="M1446 1945 c-3 -9 0 -15 9 -15 8 0 15 7 15 15 0 8 -4 15 -9 15 -5 0
-11 -7 -15 -15z"/>
<path d="M2560 1919 c0 -5 5 -7 10 -4 6 3 10 8 10 11 0 2 -4 4 -10 4 -5 0 -10
-5 -10 -11z"/>
<path d="M1430 1853 c0 -18 6 -23 25 -23 15 0 25 6 25 14 0 8 -8 13 -17 12
-10 -2 -21 2 -25 8 -5 6 -8 2 -8 -11z"/>
<path d="M3386 1833 c-4 -10 -1 -22 7 -28 7 -5 16 -18 20 -27 4 -11 12 -15 22
-12 21 9 19 25 -5 31 -11 3 -20 14 -20 24 0 25 -16 33 -24 12z"/>
<path d="M4460 1740 c0 -5 5 -10 11 -10 5 0 7 5 4 10 -3 6 -8 10 -11 10 -2 0
-4 -4 -4 -10z"/>
<path d="M4330 1652 c0 -16 13 -20 35 -11 11 4 15 8 8 8 -6 1 -18 4 -27 7 -9
3 -16 1 -16 -4z"/>
<path d="M4450 1615 c0 -9 9 -15 25 -15 28 0 34 15 9 24 -25 10 -34 7 -34 -9z"/>
<path d="M4250 1610 c0 -5 5 -10 10 -10 6 0 10 5 10 10 0 6 -4 10 -10 10 -5 0
-10 -4 -10 -10z"/>
<path d="M4377 1589 c-9 -6 -15 -14 -12 -18 7 -12 56 0 52 12 -5 16 -20 18
-40 6z"/>
<path d="M4270 1552 c0 -13 25 -22 57 -22 15 0 23 5 21 13 -5 14 -78 23 -78 9z"/>
<path d="M4025 1491 c-8 -14 -8 -13 38 -16 24 -1 36 2 34 9 -5 15 -63 20 -72
7z"/>
<path d="M3875 1450 c-3 -5 1 -10 10 -10 9 0 13 5 10 10 -3 6 -8 10 -10 10 -2
0 -7 -4 -10 -10z"/>
<path d="M2590 1390 c0 -12 28 -21 35 -11 2 5 -4 11 -15 14 -11 3 -20 2 -20
-3z"/>
<path d="M4840 1640 c-6 -11 -18 -20 -26 -20 -9 0 -22 -7 -30 -15 -13 -12 -12
-15 6 -25 14 -7 20 -7 20 0 0 6 12 15 26 20 14 6 23 14 19 19 -3 5 4 13 16 16
17 6 19 9 8 16 -21 13 -27 11 -39 -11z"/>
<path d="M4892 1490 c0 -19 2 -27 5 -17 2 9 2 25 0 35 -3 9 -5 1 -5 -18z"/>
<path d="M4698 1471 c-14 -25 -14 -30 -2 -35 17 -6 54 27 54 49 0 26 -34 16
-52 -14z"/>
<path d="M4890 1410 c0 -19 3 -21 12 -12 9 9 9 15 0 24 -9 9 -12 7 -12 -12z"/>
<path d="M4784 1373 c2 -27 5 -51 5 -55 1 -5 5 -8 9 -8 5 0 9 17 9 38 0 20 4
45 8 55 5 13 2 17 -15 17 -20 0 -21 -4 -16 -47z"/>
<path d="M4870 1320 c-12 -8 -12 -10 3 -16 21 -8 35 2 21 16 -5 5 -15 6 -24 0z"/>
<path d="M1690 1385 c0 -8 5 -15 10 -15 6 0 10 7 10 15 0 8 -4 15 -10 15 -5 0
-10 -7 -10 -15z"/>
<path d="M1580 1350 c0 -11 6 -20 14 -20 21 0 31 21 15 31 -22 14 -29 11 -29
-11z"/>
<path d="M1685 1350 c3 -5 10 -10 16 -10 5 0 9 5 9 10 0 6 -7 10 -16 10 -8 0
-12 -4 -9 -10z"/>
<path d="M1770 1336 c0 -2 7 -9 15 -16 12 -10 15 -10 15 4 0 9 -7 16 -15 16
-8 0 -15 -2 -15 -4z"/>
<path d="M1517 1283 c-14 -13 -6 -20 18 -15 14 2 25 8 25 13 0 10 -34 12 -43
2z"/>
<path d="M2300 1210 c0 -5 11 -10 25 -10 14 0 25 5 25 10 0 6 -11 10 -25 10
-14 0 -25 -4 -25 -10z"/>
<path d="M2160 1125 c0 -14 0 -28 -1 -32 0 -4 3 -9 8 -10 5 -2 9 12 10 32 1
19 -3 35 -8 35 -5 0 -9 -11 -9 -25z"/>
<path d="M2226 1121 c-3 -5 1 -12 10 -15 25 -10 34 -7 34 9 0 16 -35 21 -44 6z"/>
<path d="M2286 992 c-7 -12 22 -38 31 -28 4 3 0 14 -9 22 -9 10 -18 12 -22 6z"/>
<path d="M2375 921 c-8 -15 3 -31 21 -31 9 0 14 7 12 17 -4 20 -24 28 -33 14z"/>
<path d="M2460 912 c0 -5 9 -13 20 -18 19 -8 19 -11 5 -31 -11 -15 -26 -23
-46 -23 -22 0 -29 -5 -29 -19 0 -11 4 -22 9 -26 12 -7 62 16 55 26 -2 4 8 19
23 33 26 25 26 26 8 46 -18 20 -45 27 -45 12z"/>
<path d="M2486 815 c4 -8 8 -15 10 -15 2 0 4 7 4 15 0 8 -4 15 -10 15 -5 0 -7
-7 -4 -15z"/>
<path d="M4472 1409 c-7 -10 -23 -19 -36 -19 -31 0 -42 -17 -17 -25 22 -7 61
13 61 32 0 6 5 13 12 15 7 3 8 7 2 11 -5 3 -15 -3 -22 -14z"/>
<path d="M4520 1360 c0 -22 39 -80 53 -80 3 0 3 9 0 20 -3 11 -12 20 -19 20
-8 0 -14 9 -14 19 0 11 -4 23 -10 26 -5 3 -10 1 -10 -5z"/>
<path d="M4310 1321 c0 -15 16 -22 34 -15 25 9 19 24 -9 24 -14 0 -25 -4 -25
-9z"/>
<path d="M4230 1278 c0 -11 28 -10 35 1 3 6 -4 9 -15 8 -11 -1 -20 -5 -20 -9z"/>
<path d="M4140 1255 c0 -16 16 -20 24 -6 3 5 -1 11 -9 15 -9 3 -15 0 -15 -9z"/>
<path d="M4326 1251 c-3 -5 1 -12 10 -15 21 -8 56 3 49 15 -8 12 -52 12 -59 0z"/>
<path d="M4625 1228 c-14 -38 -10 -63 11 -66 37 -5 45 19 18 51 -17 19 -26 24
-29 15z"/>
<path d="M4480 1209 c0 -5 10 -9 22 -9 12 0 18 3 14 7 -10 11 -36 12 -36 2z"/>
<path d="M4505 1180 c3 -5 10 -10 16 -10 5 0 9 5 9 10 0 6 -7 10 -16 10 -8 0
-12 -4 -9 -10z"/>
<path d="M3280 1170 c0 -5 9 -10 20 -10 11 0 20 5 20 10 0 6 -9 10 -20 10 -11
0 -20 -4 -20 -10z"/>
<path d="M2760 1160 c0 -5 5 -10 10 -10 6 0 10 5 10 10 0 6 -4 10 -10 10 -5 0
-10 -4 -10 -10z"/>
<path d="M2680 1150 c0 -5 5 -10 10 -10 6 0 10 5 10 10 0 6 -4 10 -10 10 -5 0
-10 -4 -10 -10z"/>
<path d="M3980 1150 c0 -5 14 -10 30 -10 17 0 30 5 30 10 0 6 -13 10 -30 10
-16 0 -30 -4 -30 -10z"/>
<path d="M4136 1151 c-3 -5 1 -12 10 -15 21 -8 56 3 49 15 -8 12 -52 12 -59 0z"/>
<path d="M4461 1146 c-7 -8 -23 -17 -37 -20 -29 -8 -27 -33 2 -28 10 2 27 3
37 3 12 0 17 8 17 30 0 33 -3 35 -19 15z"/>
<path d="M4297 1124 c-11 -12 3 -24 29 -24 16 0 24 5 22 13 -5 13 -40 22 -51
11z"/>
<path d="M3920 1110 c0 -5 7 -7 15 -4 8 4 15 8 15 10 0 2 -7 4 -15 4 -8 0 -15
-4 -15 -10z"/>
<path d="M4128 1093 c-28 -7 -21 -20 17 -33 19 -6 33 -16 30 -21 -14 -22 23
-6 48 21 20 21 24 30 14 30 -9 0 -17 -6 -20 -12 -3 -10 -12 -9 -35 5 -16 9
-32 16 -34 16 -1 -1 -11 -3 -20 -6z"/>
<path d="M4064 1019 c-9 -14 20 -21 47 -10 14 6 18 10 9 11 -8 1 -23 3 -32 5
-10 2 -20 -1 -24 -6z"/>
<path d="M2727 968 c-7 -27 2 -45 14 -27 11 18 11 49 0 49 -5 0 -11 -10 -14
-22z"/>
<path d="M3500 921 c0 -14 28 -33 40 -26 20 12 10 35 -15 35 -14 0 -25 -4 -25
-9z"/>
<path d="M2784 905 c-10 -8 -30 -15 -44 -15 -24 -1 -24 -2 7 -17 39 -20 63
-11 63 22 0 29 0 29 -26 10z"/>
<path d="M3341 891 c-11 -7 -9 -11 8 -20 25 -14 64 -5 58 12 -5 15 -47 20 -66
8z"/>
<path d="M2993 835 c-45 -19 -41 -35 6 -35 43 0 55 9 45 34 -7 19 -10 19 -51
1z"/>
<path d="M2810 833 c-25 -5 -52 -32 -43 -46 2 -4 10 -4 16 0 7 4 24 6 39 4 18
-1 30 4 37 18 18 33 14 35 -49 24z"/>
<path d="M2687 803 c-19 -19 -5 -33 34 -33 36 0 40 2 29 15 -7 9 -19 14 -27
11 -7 -3 -13 -1 -13 4 0 11 -13 13 -23 3z"/>
<path d="M2220 6114 l-25 -13 27 -1 c15 0 29 4 33 9 10 17 -10 20 -35 5z"/>
<path d="M1430 5951 c-13 -25 -13 -58 0 -66 6 -3 10 1 10 9 0 8 14 23 30 33
39 22 39 43 0 43 -19 0 -33 -7 -40 -19z"/>
<path d="M1325 5890 c3 -5 8 -10 11 -10 2 0 4 5 4 10 0 6 -5 10 -11 10 -5 0
-7 -4 -4 -10z"/>
<path d="M1360 5839 c0 -11 4 -18 10 -14 5 3 7 12 3 20 -7 21 -13 19 -13 -6z"/>
<path d="M1310 5781 c0 -11 4 -22 8 -25 14 -9 35 12 29 28 -9 23 -37 20 -37
-3z"/>
<path d="M4640 5694 c0 -3 6 -12 14 -20 16 -15 32 -2 21 16 -7 11 -35 14 -35
4z"/>
<path d="M980 5644 c0 -9 7 -14 17 -12 25 5 28 28 4 28 -12 0 -21 -6 -21 -16z"/>
<path d="M4570 5651 c0 -5 7 -11 15 -15 9 -3 15 0 15 9 0 8 -7 15 -15 15 -8 0
-15 -4 -15 -9z"/>
<path d="M953 5419 c-3 -12 -14 -19 -29 -19 -28 0 -34 -34 -8 -44 9 -4 18 -5
18 -4 24 40 39 58 51 58 26 0 25 18 -1 23 -20 3 -28 0 -31 -14z"/>
<path d="M770 5420 c0 -5 5 -10 10 -10 6 0 10 5 10 10 0 6 -4 10 -10 10 -5 0
-10 -4 -10 -10z"/>
<path d="M4785 5367 c-8 -31 0 -46 15 -31 7 7 7 19 1 35 l-9 24 -7 -28z"/>
<path d="M816 5364 c-19 -19 -12 -34 15 -34 12 0 19 7 19 19 0 27 -15 34 -34
15z"/>
<path d="M712 5356 c1 -10 8 -17 13 -17 15 1 12 24 -3 29 -9 3 -13 -2 -10 -12z"/>
<path d="M458 5162 c-19 -4 -24 -27 -9 -36 10 -7 35 19 29 32 -1 4 -11 6 -20
4z"/>
<path d="M532 5148 c5 -15 28 -18 29 -3 0 6 -7 12 -17 13 -10 3 -15 -1 -12
-10z"/>
<path d="M492 5091 c-16 -10 3 -35 22 -28 9 4 16 11 16 16 0 12 -24 21 -38 12z"/>
<path d="M585 5090 c-4 -6 -3 -14 0 -20 9 -15 35 -12 35 4 0 17 -27 29 -35 16z"/>
<path d="M5046 5064 c-9 -34 8 -54 28 -34 10 11 11 22 5 38 -11 30 -25 28 -33
-4z"/>
<path d="M5157 5030 c3 -11 9 -17 15 -14 5 3 4 12 -3 20 -16 19 -18 18 -12 -6z"/>
<path d="M440 5010 c0 -5 4 -10 9 -10 6 0 13 5 16 10 3 6 -1 10 -9 10 -9 0
-16 -4 -16 -10z"/>
<path d="M554 5004 c3 -9 6 -20 6 -25 0 -5 7 -9 15 -9 8 0 15 4 15 9 0 21 -13
41 -27 41 -10 0 -13 -6 -9 -16z"/>
<path d="M5076 5004 c-11 -29 -6 -44 13 -44 24 0 33 13 25 33 -8 22 -31 28
-38 11z"/>
<path d="M514 4935 c18 -13 17 -15 -9 -38 -19 -16 -26 -30 -22 -40 12 -31 77
9 74 46 -1 24 -24 46 -47 46 -12 0 -11 -3 4 -14z"/>
<path d="M448 4823 c-12 -14 -13 -24 -6 -43 l9 -25 14 25 c16 28 19 60 7 60
-5 0 -16 -8 -24 -17z"/>
<path d="M5390 4639 c0 -5 5 -7 10 -4 6 3 10 8 10 11 0 2 -4 4 -10 4 -5 0 -10
-5 -10 -11z"/>
<path d="M5462 4540 c0 -14 2 -19 5 -12 2 6 2 18 0 25 -3 6 -5 1 -5 -13z"/>
<path d="M5380 4405 c0 -9 9 -15 21 -15 18 0 19 2 9 15 -7 8 -16 15 -21 15 -5
0 -9 -7 -9 -15z"/>
<path d="M5410 4176 c0 -9 8 -16 19 -16 13 0 21 -8 23 -22 5 -34 23 -23 23 15
0 29 -3 32 -32 35 -25 2 -33 -1 -33 -12z"/>
<path d="M5605 4099 c-10 -16 8 -37 36 -43 25 -5 29 -10 24 -25 -6 -19 4 -21
56 -12 4 0 9 8 13 16 4 10 -5 20 -29 29 -19 8 -35 19 -35 24 0 12 -59 22 -65
11z"/>
<path d="M5443 4075 c-19 -21 -16 -34 11 -41 38 -9 49 3 29 31 -21 28 -24 29
-40 10z"/>
<path d="M6190 4081 c0 -5 6 -11 13 -13 17 -7 38 2 31 13 -7 12 -44 12 -44 0z"/>
<path d="M5560 4050 c0 -5 5 -10 10 -10 6 0 10 5 10 10 0 6 -4 10 -10 10 -5 0
-10 -4 -10 -10z"/>
<path d="M6110 4056 c0 -10 48 -56 59 -56 18 0 13 20 -11 41 -21 17 -48 25
-48 15z"/>
<path d="M6057 4019 c7 -7 15 -10 18 -7 3 3 -2 9 -12 12 -14 6 -15 5 -6 -5z"/>
<path d="M5760 3986 c0 -18 7 -25 29 -29 17 -4 31 -14 33 -24 2 -12 13 -18 38
-19 19 -1 30 1 23 3 -7 2 -9 11 -6 19 4 10 -2 17 -15 21 -12 3 -28 16 -37 29
-21 33 -65 33 -65 0z"/>
<path d="M5390 3980 c20 -13 53 -13 45 0 -3 6 -18 10 -33 10 -21 0 -24 -2 -12
-10z"/>
<path d="M6212 3958 c5 -32 28 -35 28 -4 0 17 -5 26 -16 26 -10 0 -14 -7 -12
-22z"/>
<path d="M5290 3947 c0 -14 5 -29 10 -32 7 -4 8 3 4 22 -9 38 -14 42 -14 10z"/>
<path d="M5556 3955 c-4 -12 -1 -16 11 -13 18 3 21 20 5 26 -5 1 -12 -4 -16
-13z"/>
<path d="M6110 3956 c0 -7 7 -19 15 -26 12 -10 16 -9 21 3 3 9 3 21 -1 27 -9
15 -35 12 -35 -4z"/>
<path d="M5696 3951 c-3 -5 1 -12 10 -15 21 -8 56 3 49 15 -8 12 -52 12 -59 0z"/>
<path d="M5420 3922 c0 -10 48 -38 54 -31 9 8 -9 26 -31 33 -13 4 -23 3 -23
-2z"/>
<path d="M5636 3922 c-12 -11 -5 -20 19 -24 16 -3 25 -1 25 7 0 13 -35 27 -44
17z"/>
<path d="M6164 3905 c19 -14 36 -12 36 6 0 5 -12 9 -27 9 -27 -1 -27 -1 -9
-15z"/>
<path d="M5815 3890 c-3 -6 1 -13 10 -16 19 -8 30 0 20 15 -8 14 -22 14 -30 1z"/>
<path d="M6250 3874 c0 -17 22 -14 28 4 2 7 -3 12 -12 12 -9 0 -16 -7 -16 -16z"/>
<path d="M5317 3857 c-3 -8 -2 -19 3 -26 6 -11 12 -11 31 -1 22 12 22 13 4 26
-24 17 -32 18 -38 1z"/>
<path d="M6245 3820 c-4 -6 4 -19 17 -30 26 -22 38 -25 38 -10 0 6 -4 10 -10
10 -5 0 -10 9 -10 20 0 21 -24 28 -35 10z"/>
<path d="M5315 3779 c-8 -33 6 -52 32 -42 17 7 16 33 -1 56 -18 24 -23 22 -31
-14z"/>
<path d="M6111 3691 c-23 -23 -28 -43 -8 -39 17 4 77 -43 77 -60 0 -7 6 -12
13 -10 14 5 23 60 9 56 -5 -2 -23 14 -40 35 l-31 38 -20 -20z"/>
<path d="M5323 3673 c-24 -9 -14 -33 13 -33 18 0 25 5 22 17 -3 18 -16 24 -35
16z"/>
<path d="M5406 3624 c-11 -7 -18 -15 -15 -17 2 -1 12 -9 22 -16 14 -11 20 -11
32 -1 20 16 19 27 -3 39 -12 6 -23 5 -36 -5z"/>
<path d="M5621 3588 c0 -16 2 -18 6 -8 3 8 11 18 17 22 7 5 4 8 -6 8 -12 0
-18 -7 -17 -22z"/>
<path d="M5705 3601 c-3 -5 -1 -12 5 -16 5 -3 10 1 10 9 0 18 -6 21 -15 7z"/>
<path d="M6084 3586 c-8 -22 4 -68 16 -61 13 8 13 62 0 70 -6 3 -13 -1 -16 -9z"/>
<path d="M5591 3544 c0 -11 3 -14 6 -6 3 7 2 16 -1 19 -3 4 -6 -2 -5 -13z"/>
<path d="M5700 3549 c0 -5 5 -7 10 -4 6 3 10 8 10 11 0 2 -4 4 -10 4 -5 0 -10
-5 -10 -11z"/>
<path d="M6230 3522 c0 -17 38 -62 53 -62 14 0 6 38 -12 58 -23 27 -41 28 -41
4z"/>
<path d="M5550 3481 c0 -10 7 -24 15 -31 8 -7 15 -19 15 -26 0 -8 4 -14 10
-14 5 0 12 -11 16 -25 3 -13 14 -27 24 -30 10 -3 21 -12 24 -20 7 -19 26 -19
26 -1 0 19 -49 72 -62 68 -6 -1 -7 10 -3 28 6 26 4 32 -13 37 -12 3 -23 11
-26 19 -8 20 -26 17 -26 -5z"/>
<path d="M5640 3441 c0 -29 14 -42 38 -33 15 5 16 34 0 50 -21 21 -38 13 -38
-17z"/>
<path d="M6120 3436 c0 -7 -7 -19 -15 -26 -8 -7 -15 -18 -14 -24 0 -7 2 -6 6
2 2 6 11 12 18 12 7 0 15 7 19 15 3 9 16 20 28 25 21 8 20 9 -9 9 -22 1 -33
-4 -33 -13z"/>
<path d="M6210 3402 c0 -16 8 -32 20 -40 18 -11 20 -10 20 16 0 27 -15 52 -32
52 -4 0 -8 -12 -8 -28z"/>
<path d="M5700 3387 c0 -10 5 -17 10 -17 6 0 9 -5 8 -11 -2 -6 3 -14 10 -16
18 -7 15 11 -8 37 -16 18 -20 20 -20 7z"/>
<path d="M6144 3356 c-7 -19 3 -36 22 -36 10 0 14 8 12 22 -4 26 -26 36 -34
14z"/>
<path d="M6319 3351 c-1 -12 -2 -26 -3 -33 -1 -6 5 -13 12 -15 8 -3 12 6 12
26 0 34 -19 53 -21 22z"/>
<path d="M5707 3312 c-5 -7 -13 -10 -18 -7 -5 4 -9 -1 -9 -9 0 -8 5 -18 11
-22 15 -9 32 10 27 32 -2 14 -6 16 -11 6z"/>
<path d="M6347 3243 c-4 -3 -7 -15 -7 -25 0 -26 24 -17 28 10 3 21 -8 29 -21
15z"/>
<path d="M5717 3223 c-13 -12 -7 -51 9 -57 24 -9 24 -9 24 29 0 33 -16 46 -33
28z"/>
<path d="M6355 3150 c-4 -6 -3 -16 3 -22 13 -13 23 4 13 21 -7 10 -10 10 -16
1z"/>
<path d="M5758 3129 c-25 -14 -22 -31 4 -27 13 2 24 11 26 21 4 19 -5 21 -30
6z"/>
<path d="M6387 2903 c-11 -10 -8 -43 3 -43 6 0 10 11 10 25 0 26 -2 29 -13 18z"/>
<path d="M5767 2593 c-3 -15 -1 -32 4 -37 12 -13 19 -4 22 29 3 37 -19 44 -26
8z"/>
<path d="M5715 2510 c3 -5 10 -10 16 -10 5 0 9 5 9 10 0 6 -7 10 -16 10 -8 0
-12 -4 -9 -10z"/>
<path d="M5650 2428 c0 -26 20 -32 38 -13 16 16 16 17 1 12 -9 -3 -22 0 -28 6
-8 8 -11 7 -11 -5z"/>
<path d="M6380 2410 c0 -11 5 -20 10 -20 6 0 10 9 10 20 0 11 -4 20 -10 20 -5
0 -10 -9 -10 -20z"/>
<path d="M5650 2330 c-13 -24 -5 -60 14 -60 14 0 21 66 7 75 -6 3 -15 -4 -21
-15z"/>
<path d="M5727 2324 c-8 -8 1 -24 14 -24 5 0 9 7 9 15 0 15 -12 20 -23 9z"/>
<path d="M6344 2295 c-3 -14 -3 -33 1 -42 6 -17 7 -17 21 1 18 26 18 52 -1 60
-10 3 -17 -3 -21 -19z"/>
<path d="M5483 2248 c2 -7 10 -13 17 -13 7 0 15 6 18 13 2 7 -5 12 -18 12 -13
0 -20 -5 -17 -12z"/>
<path d="M6215 2210 c-3 -5 1 -10 9 -10 9 0 16 5 16 10 0 6 -4 10 -9 10 -6 0
-13 -4 -16 -10z"/>
<path d="M6287 2213 c-4 -3 -7 -19 -7 -34 0 -16 -7 -32 -17 -37 -10 -6 -16
-22 -16 -41 0 -33 13 -54 20 -33 3 6 8 10 12 8 4 -3 8 14 9 37 2 23 9 47 17
53 19 14 20 54 2 54 -8 0 -17 -3 -20 -7z"/>
<path d="M5471 2151 c-13 -15 -39 -34 -57 -41 -33 -14 -44 -33 -24 -45 17 -11
49 5 43 21 -3 9 2 14 16 14 25 0 71 48 64 67 -8 19 -16 16 -42 -16z"/>
<path d="M6154 2106 c1 -45 26 -86 53 -86 21 0 15 23 -13 53 -14 16 -24 36
-22 49 2 12 -2 23 -8 25 -8 2 -11 -12 -10 -41z"/>
<path d="M5488 2078 c9 -9 15 -9 24 0 9 9 7 12 -12 12 -19 0 -21 -3 -12 -12z"/>
<path d="M5356 2023 c-11 -11 -6 -23 8 -23 8 0 17 4 20 9 7 10 -19 23 -28 14z"/>
<path d="M6080 1995 c-12 -13 -27 -22 -31 -19 -5 3 -9 -4 -9 -15 0 -12 -6 -21
-13 -21 -14 0 -47 -31 -47 -43 0 -16 28 -5 33 12 5 22 53 26 61 5 7 -19 -2
-41 -20 -48 -19 -7 -18 -45 1 -42 18 3 48 34 58 59 3 9 12 17 20 17 7 0 14 10
14 22 1 13 7 24 13 26 6 2 17 17 25 33 12 22 13 29 3 29 -15 -1 -48 -24 -48
-34 0 -10 -39 -46 -50 -46 -14 0 -13 5 10 42 32 54 21 67 -20 23z"/>
<path d="M5821 1996 c-17 -20 -10 -29 19 -24 19 3 19 5 8 21 -13 17 -15 17
-27 3z"/>
<path d="M5940 1981 c0 -5 -15 -14 -32 -21 -30 -10 -31 -12 -14 -22 25 -14 66
5 66 32 0 11 -4 20 -10 20 -5 0 -10 -4 -10 -9z"/>
<path d="M5214 1969 c-3 -6 -1 -16 5 -22 8 -8 11 -5 11 11 0 24 -5 28 -16 11z"/>
<path d="M5086 1952 c-9 -14 9 -31 23 -23 7 5 10 14 7 20 -8 13 -23 14 -30 3z"/>
<path d="M5183 1916 c4 -10 7 -29 7 -42 0 -14 4 -22 10 -19 14 9 7 68 -9 73
-10 3 -12 0 -8 -12z"/>
<path d="M5050 1881 c0 -6 5 -13 10 -16 6 -3 10 1 10 9 0 9 -4 16 -10 16 -5 0
-10 -4 -10 -9z"/>
<path d="M5880 1867 c0 -18 5 -27 15 -27 13 0 14 4 4 23 -17 33 -19 33 -19 4z"/>
<path d="M5118 1865 c-4 -4 -4 -13 -1 -21 3 -8 -1 -14 -11 -14 -9 0 -16 -7
-16 -15 0 -12 4 -14 19 -5 11 5 22 13 24 18 6 10 -7 44 -15 37z"/>
<path d="M5186 1824 c-9 -24 -7 -54 4 -54 14 0 28 31 23 51 -6 23 -19 24 -27
3z"/>
<path d="M5990 1810 c0 -5 5 -10 10 -10 6 0 10 5 10 10 0 6 -4 10 -10 10 -5 0
-10 -4 -10 -10z"/>
<path d="M5952 1798 c-18 -18 -15 -28 8 -28 21 0 25 7 12 27 -6 10 -11 10 -20
1z"/>
<path d="M5843 1779 c-13 -5 -23 -13 -23 -19 0 -14 11 -12 34 5 24 18 18 25
-11 14z"/>
<path d="M5055 1760 c-4 -6 -4 -28 0 -47 5 -27 9 -33 16 -22 12 18 12 66 0 74
-5 3 -13 0 -16 -5z"/>
<path d="M5685 1680 c3 -5 12 -10 20 -10 8 0 17 5 20 10 4 6 -5 10 -20 10 -15
0 -24 -4 -20 -10z"/>
<path d="M5090 1523 c0 -70 1 -75 13 -53 14 27 11 130 -4 130 -5 0 -9 -35 -9
-77z"/>
<path d="M5623 1563 c-14 -5 -18 -33 -5 -33 4 0 14 5 22 10 17 11 2 30 -17 23z"/>
<path d="M5213 1528 c-23 -11 -31 -28 -13 -28 6 0 10 5 10 10 0 6 7 10 15 10
8 0 15 5 15 10 0 12 1 12 -27 -2z"/>
<path d="M5146 1451 c-8 -12 20 -22 40 -14 13 5 13 7 2 14 -17 11 -35 11 -42
0z"/>
<path d="M5328 1447 c-7 -8 -26 -17 -41 -21 -15 -3 -25 -11 -22 -16 10 -16 41
-11 60 10 10 11 22 17 26 14 5 -3 6 2 3 10 -7 19 -9 20 -26 3z"/>
<path d="M5090 1414 c0 -8 5 -12 10 -9 6 4 8 11 5 16 -9 14 -15 11 -15 -7z"/>
<path d="M5222 1408 c-7 -7 -12 -18 -12 -25 0 -7 -3 -13 -7 -14 -5 0 -30 -2
-57 -5 -27 -2 -53 -7 -58 -12 -14 -14 10 -26 25 -13 8 6 18 6 27 1 8 -6 23
-10 33 -10 26 0 77 41 77 61 0 23 -14 31 -28 17z"/>
<path d="M1855 1120 c-16 -25 127 -40 151 -15 7 7 10 15 7 19 -10 10 -151 7
-158 -4z"/>
<path d="M1633 1089 c-53 -15 -39 -30 25 -25 31 2 59 5 62 6 9 2 -34 30 -44
29 -6 0 -26 -5 -43 -10z"/>
<path d="M1412 1058 c-19 -19 -14 -28 17 -28 34 0 51 18 30 31 -19 12 -33 11
-47 -3z"/>
<path d="M1990 1061 c0 -5 7 -11 15 -15 9 -3 15 0 15 9 0 8 -7 15 -15 15 -8 0
-15 -4 -15 -9z"/>
<path d="M1286 1051 c-3 -5 0 -13 7 -18 15 -10 47 -11 47 0 0 4 0 12 0 17 0
12 -47 13 -54 1z"/>
<path d="M452 1019 c-34 -13 58 -21 126 -12 l67 9 -88 5 c-49 2 -96 1 -105 -2z"/>
<path d="M1870 1015 c0 -9 5 -15 11 -13 6 2 11 8 11 13 0 5 -5 11 -11 13 -6 2
-11 -4 -11 -13z"/>
<path d="M338 1013 c17 -2 47 -2 65 0 17 2 3 4 -33 4 -36 0 -50 -2 -32 -4z"/>
<path d="M1382 984 c4 -21 22 -23 26 -1 2 10 -3 17 -13 17 -10 0 -15 -6 -13
-16z"/>
<path d="M1490 980 c0 -5 5 -10 10 -10 6 0 10 5 10 10 0 6 -4 10 -10 10 -5 0
-10 -4 -10 -10z"/>
<path d="M1550 980 c0 -6 18 -10 40 -10 22 0 40 4 40 8 0 5 -18 9 -40 10 -22
1 -40 -3 -40 -8z"/>
<path d="M1791 974 c0 -11 3 -14 6 -6 3 7 2 16 -1 19 -3 4 -6 -2 -5 -13z"/>
<path d="M1277 955 c7 -32 36 -34 31 -3 -2 13 -10 24 -19 26 -13 2 -15 -3 -12
-23z"/>
<path d="M1946 959 c-18 -26 -13 -39 15 -39 14 0 19 7 19 24 0 34 -16 41 -34
15z"/>
<path d="M2086 924 c-11 -29 -6 -64 8 -64 8 0 23 -13 33 -30 9 -16 23 -30 31
-30 7 0 10 -4 7 -10 -3 -5 3 -10 14 -10 29 0 26 10 -13 56 -18 21 -33 41 -32
44 0 3 -9 18 -20 33 -18 22 -23 24 -28 11z"/>
<path d="M2045 850 c-7 -12 2 -30 16 -30 5 0 9 9 9 20 0 21 -15 27 -25 10z"/>
<path d="M2080 785 c0 -8 7 -15 15 -15 8 0 15 7 15 15 0 8 -7 15 -15 15 -8 0
-15 -7 -15 -15z"/>
<path d="M2046 734 c-11 -28 -6 -34 28 -34 21 0 36 6 40 15 3 8 1 15 -3 15 -5
0 -11 -5 -13 -12 -3 -7 -11 -9 -24 -4 -12 6 -15 10 -6 13 6 3 10 9 6 14 -8 14
-21 11 -28 -7z"/>
<path d="M2230 740 c0 -5 5 -10 10 -10 6 0 10 5 10 10 0 6 -4 10 -10 10 -5 0
-10 -4 -10 -10z"/>
<path d="M2187 723 c-12 -11 -8 -23 8 -23 8 0 15 7 15 15 0 16 -12 20 -23 8z"/>
<path d="M1780 680 c0 -5 9 -10 19 -10 11 0 23 5 26 10 4 6 -5 10 -19 10 -14
0 -26 -4 -26 -10z"/>
<path d="M1393 658 c4 -13 68 -19 94 -10 28 9 -1 22 -48 22 -36 0 -49 -4 -46
-12z"/>
</g>
</svg>
